<?xml version="1.0" encoding="UTF-8" standalone="no"?>
<!DOCTYPE svg PUBLIC "-//W3C//DTD SVG 1.1//EN"
 "http://www.w3.org/Graphics/SVG/1.1/DTD/svg11.dtd">
<!-- Generated by graphviz version 2.40.1 (20161225.0304)
 -->
<!-- Title: dependencies Pages: 1 -->
<svg width="690pt" height="284pt"
 viewBox="0.00 0.00 690.00 284.00" xmlns="http://www.w3.org/2000/svg" xmlns:xlink="http://www.w3.org/1999/xlink">
<g id="graph0" class="graph" transform="scale(1 1) rotate(0) translate(4 280)">
<title>dependencies</title>
<polygon fill="#ffffff" stroke="transparent" points="-4,4 -4,-280 686,-280 686,4 -4,4"/>
<text text-anchor="start" x="320.0091" y="-42.4" font-family="sans-serif" font-weight="bold" font-size="14.00" fill="#000000">Legend</text>
<polygon fill="#ffffb3" stroke="transparent" points="107,-10 107,-30 127,-30 127,-10 107,-10"/>
<text text-anchor="start" x="130.629" y="-15.4" font-family="sans-serif" font-size="14.00" fill="#000000"> &#160;Declarations</text>
<polygon fill="#8dd3c7" stroke="transparent" points="220,-10 220,-30 240,-30 240,-10 220,-10"/>
<text text-anchor="start" x="243.7251" y="-15.4" font-family="sans-serif" font-size="14.00" fill="#000000"> &#160;Module</text>
<polygon fill="#80b1d3" stroke="transparent" points="306,-10 306,-30 326,-30 326,-10 306,-10"/>
<text text-anchor="start" x="329.7812" y="-15.4" font-family="sans-serif" font-size="14.00" fill="#000000"> &#160;Bootstrap</text>
<polygon fill="#fdb462" stroke="transparent" points="403,-10 403,-30 423,-30 423,-10 403,-10"/>
<text text-anchor="start" x="426.6732" y="-15.4" font-family="sans-serif" font-size="14.00" fill="#000000"> &#160;Providers</text>
<polygon fill="#fb8072" stroke="transparent" points="499,-10 499,-30 519,-30 519,-10 499,-10"/>
<text text-anchor="start" x="522.7258" y="-15.4" font-family="sans-serif" font-size="14.00" fill="#000000"> &#160;Exports</text>
<g id="clust1" class="cluster">
<title>cluster_FormlyModule</title>
<polygon fill="none" stroke="#000000" stroke-dasharray="1,5" points="8,-70 8,-268 674,-268 674,-70 8,-70"/>
</g>
<g id="clust2" class="cluster">
<title>cluster_FormlyModule_declarations</title>
<polygon fill="none" stroke="#000000" points="25,-78 25,-130 659,-130 659,-78 25,-78"/>
</g>
<g id="clust9" class="cluster">
<title>cluster_FormlyModule_exports</title>
<polygon fill="none" stroke="#000000" points="16,-208 16,-260 666,-260 666,-208 16,-208"/>
</g>
<!-- FormlyAttributes -->
<g id="node1" class="node">
<title>FormlyAttributes</title>
<polygon fill="#ffffb3" stroke="#000000" points="650.7134,-122 537.2866,-122 537.2866,-86 650.7134,-86 650.7134,-122"/>
<text text-anchor="middle" x="594" y="-99.8" font-family="Times,serif" font-size="14.00" fill="#000000">FormlyAttributes</text>
</g>
<!-- FormlyModule -->
<g id="node6" class="node">
<title>FormlyModule</title>
<polygon fill="#8dd3c7" stroke="#000000" points="421.2745,-187 418.2745,-191 397.2745,-191 394.2745,-187 320.7255,-187 320.7255,-151 421.2745,-151 421.2745,-187"/>
<text text-anchor="middle" x="371" y="-164.8" font-family="Times,serif" font-size="14.00" fill="#000000">FormlyModule</text>
</g>
<!-- FormlyAttributes&#45;&gt;FormlyModule -->
<g id="edge1" class="edge">
<title>FormlyAttributes&#45;&gt;FormlyModule</title>
<path fill="none" stroke="#000000" d="M614.2855,-122.2667C614.2855,-140.5552 614.2855,-166 614.2855,-166 614.2855,-166 431.4089,-166 431.4089,-166"/>
<polygon fill="#000000" stroke="#000000" points="431.409,-162.5001 421.4089,-166 431.4089,-169.5001 431.409,-162.5001"/>
</g>
<!-- FormlyField -->
<g id="node2" class="node">
<title>FormlyField</title>
<polygon fill="#ffffb3" stroke="#000000" points="519.0028,-122 432.9972,-122 432.9972,-86 519.0028,-86 519.0028,-122"/>
<text text-anchor="middle" x="476" y="-99.8" font-family="Times,serif" font-size="14.00" fill="#000000">FormlyField</text>
</g>
<!-- FormlyField&#45;&gt;FormlyModule -->
<g id="edge2" class="edge">
<title>FormlyField&#45;&gt;FormlyModule</title>
<path fill="none" stroke="#000000" d="M490.7505,-122.0091C490.7505,-138.0494 490.7505,-159 490.7505,-159 490.7505,-159 431.4379,-159 431.4379,-159"/>
<polygon fill="#000000" stroke="#000000" points="431.4379,-155.5001 421.4379,-159 431.4379,-162.5001 431.4379,-155.5001"/>
</g>
<!-- FormlyForm -->
<g id="node3" class="node">
<title>FormlyForm</title>
<polygon fill="#ffffb3" stroke="#000000" points="414.5593,-122 327.4407,-122 327.4407,-86 414.5593,-86 414.5593,-122"/>
<text text-anchor="middle" x="371" y="-99.8" font-family="Times,serif" font-size="14.00" fill="#000000">FormlyForm</text>
</g>
<!-- FormlyForm&#45;&gt;FormlyModule -->
<g id="edge3" class="edge">
<title>FormlyForm&#45;&gt;FormlyModule</title>
<path fill="none" stroke="#000000" d="M371,-122.1061C371,-122.1061 371,-140.991 371,-140.991"/>
<polygon fill="#000000" stroke="#000000" points="367.5001,-140.9909 371,-150.991 374.5001,-140.991 367.5001,-140.9909"/>
</g>
<!-- FormlyGroup -->
<g id="node4" class="node">
<title>FormlyGroup</title>
<polygon fill="#ffffb3" stroke="#000000" points="309.4916,-122 216.5084,-122 216.5084,-86 309.4916,-86 309.4916,-122"/>
<text text-anchor="middle" x="263" y="-99.8" font-family="Times,serif" font-size="14.00" fill="#000000">FormlyGroup</text>
</g>
<!-- FormlyGroup&#45;&gt;FormlyModule -->
<g id="edge4" class="edge">
<title>FormlyGroup&#45;&gt;FormlyModule</title>
<path fill="none" stroke="#000000" d="M276.9986,-122.0091C276.9986,-138.0494 276.9986,-159 276.9986,-159 276.9986,-159 310.697,-159 310.697,-159"/>
<polygon fill="#000000" stroke="#000000" points="310.697,-162.5001 320.697,-159 310.6969,-155.5001 310.697,-162.5001"/>
</g>
<!-- FormlyValidationMessage -->
<g id="node5" class="node">
<title>FormlyValidationMessage</title>
<polygon fill="#ffffb3" stroke="#000000" points="198.8005,-122 33.1995,-122 33.1995,-86 198.8005,-86 198.8005,-122"/>
<text text-anchor="middle" x="116" y="-99.8" font-family="Times,serif" font-size="14.00" fill="#000000">FormlyValidationMessage</text>
</g>
<!-- FormlyValidationMessage&#45;&gt;FormlyModule -->
<g id="edge5" class="edge">
<title>FormlyValidationMessage&#45;&gt;FormlyModule</title>
<path fill="none" stroke="#000000" d="M139.3834,-122.2667C139.3834,-140.5552 139.3834,-166 139.3834,-166 139.3834,-166 310.457,-166 310.457,-166"/>
<polygon fill="#000000" stroke="#000000" points="310.457,-169.5001 320.457,-166 310.4569,-162.5001 310.457,-169.5001"/>
</g>
<!-- FormlyAttributes  -->
<g id="node7" class="node">
<title>FormlyAttributes </title>
<polygon fill="#fb8072" stroke="#000000" points="658.2136,-252 541.7864,-252 541.7864,-216 658.2136,-216 658.2136,-252"/>
<text text-anchor="middle" x="600" y="-229.8" font-family="Times,serif" font-size="14.00" fill="#000000">FormlyAttributes </text>
</g>
<!-- FormlyModule&#45;&gt;FormlyAttributes  -->
<g id="edge6" class="edge">
<title>FormlyModule&#45;&gt;FormlyAttributes </title>
<path fill="none" stroke="#000000" stroke-dasharray="5,2" d="M421.3646,-173C482.6266,-173 577.9645,-173 577.9645,-173 577.9645,-173 577.9645,-205.698 577.9645,-205.698"/>
<polygon fill="#000000" stroke="#000000" points="574.4646,-205.698 577.9645,-215.698 581.4646,-205.698 574.4646,-205.698"/>
</g>
<!-- FormlyField  -->
<g id="node8" class="node">
<title>FormlyField </title>
<polygon fill="#fb8072" stroke="#000000" points="523.5042,-252 434.4958,-252 434.4958,-216 523.5042,-216 523.5042,-252"/>
<text text-anchor="middle" x="479" y="-229.8" font-family="Times,serif" font-size="14.00" fill="#000000">FormlyField </text>
</g>
<!-- FormlyModule&#45;&gt;FormlyField  -->
<g id="edge7" class="edge">
<title>FormlyModule&#45;&gt;FormlyField </title>
<path fill="none" stroke="#000000" stroke-dasharray="5,2" d="M421.3002,-180C442.5618,-180 462.4995,-180 462.4995,-180 462.4995,-180 462.4995,-205.7181 462.4995,-205.7181"/>
<polygon fill="#000000" stroke="#000000" points="458.9996,-205.718 462.4995,-215.7181 465.9996,-205.7181 458.9996,-205.718"/>
</g>
<!-- FormlyForm  -->
<g id="node9" class="node">
<title>FormlyForm </title>
<polygon fill="#fb8072" stroke="#000000" points="416.5582,-252 325.4418,-252 325.4418,-216 416.5582,-216 416.5582,-252"/>
<text text-anchor="middle" x="371" y="-229.8" font-family="Times,serif" font-size="14.00" fill="#000000">FormlyForm </text>
</g>
<!-- FormlyModule&#45;&gt;FormlyForm  -->
<g id="edge8" class="edge">
<title>FormlyModule&#45;&gt;FormlyForm </title>
<path fill="none" stroke="#000000" stroke-dasharray="5,2" d="M371,-187.1061C371,-187.1061 371,-205.991 371,-205.991"/>
<polygon fill="#000000" stroke="#000000" points="367.5001,-205.9909 371,-215.991 374.5001,-205.991 367.5001,-205.9909"/>
</g>
<!-- FormlyGroup  -->
<g id="node10" class="node">
<title>FormlyGroup </title>
<polygon fill="#fb8072" stroke="#000000" points="307.4929,-252 210.5071,-252 210.5071,-216 307.4929,-216 307.4929,-252"/>
<text text-anchor="middle" x="259" y="-229.8" font-family="Times,serif" font-size="14.00" fill="#000000">FormlyGroup </text>
</g>
<!-- FormlyModule&#45;&gt;FormlyGroup  -->
<g id="edge9" class="edge">
<title>FormlyModule&#45;&gt;FormlyGroup </title>
<path fill="none" stroke="#000000" stroke-dasharray="5,2" d="M320.4633,-180C286.0644,-180 246.7514,-180 246.7514,-180 246.7514,-180 246.7514,-205.7181 246.7514,-205.7181"/>
<polygon fill="#000000" stroke="#000000" points="243.2515,-205.718 246.7514,-215.7181 250.2515,-205.7181 243.2515,-205.718"/>
</g>
<!-- FormlyValidationMessage  -->
<g id="node11" class="node">
<title>FormlyValidationMessage </title>
<polygon fill="#fb8072" stroke="#000000" points="192.3003,-252 23.6997,-252 23.6997,-216 192.3003,-216 192.3003,-252"/>
<text text-anchor="middle" x="108" y="-229.8" font-family="Times,serif" font-size="14.00" fill="#000000">FormlyValidationMessage </text>
</g>
<!-- FormlyModule&#45;&gt;FormlyValidationMessage  -->
<g id="edge10" class="edge">
<title>FormlyModule&#45;&gt;FormlyValidationMessage </title>
<path fill="none" stroke="#000000" stroke-dasharray="5,2" d="M320.4412,-173C238.649,-173 86.3666,-173 86.3666,-173 86.3666,-173 86.3666,-205.698 86.3666,-205.698"/>
<polygon fill="#000000" stroke="#000000" points="82.8665,-205.698 86.3666,-215.698 89.8665,-205.698 82.8665,-205.698"/>
</g>
</g>
</svg>
