<?xml version="1.0" encoding="UTF-8" standalone="no"?>
<!DOCTYPE svg PUBLIC "-//W3C//DTD SVG 1.1//EN"
 "http://www.w3.org/Graphics/SVG/1.1/DTD/svg11.dtd">
<!-- Generated by graphviz version 2.40.1 (20161225.0304)
 -->
<!-- Title: dependencies Pages: 1 -->
<svg width="831pt" height="284pt"
 viewBox="0.00 0.00 831.00 284.00" xmlns="http://www.w3.org/2000/svg" xmlns:xlink="http://www.w3.org/1999/xlink">
<g id="graph0" class="graph" transform="scale(1 1) rotate(0) translate(4 280)">
<title>dependencies</title>
<polygon fill="#ffffff" stroke="transparent" points="-4,4 -4,-280 827,-280 827,4 -4,4"/>
<text text-anchor="start" x="390.5091" y="-42.4" font-family="sans-serif" font-weight="bold" font-size="14.00" fill="#000000">Legend</text>
<polygon fill="#ffffb3" stroke="transparent" points="177.5,-10 177.5,-30 197.5,-30 197.5,-10 177.5,-10"/>
<text text-anchor="start" x="201.129" y="-15.4" font-family="sans-serif" font-size="14.00" fill="#000000"> &#160;Declarations</text>
<polygon fill="#8dd3c7" stroke="transparent" points="290.5,-10 290.5,-30 310.5,-30 310.5,-10 290.5,-10"/>
<text text-anchor="start" x="314.2251" y="-15.4" font-family="sans-serif" font-size="14.00" fill="#000000"> &#160;Module</text>
<polygon fill="#80b1d3" stroke="transparent" points="376.5,-10 376.5,-30 396.5,-30 396.5,-10 376.5,-10"/>
<text text-anchor="start" x="400.2812" y="-15.4" font-family="sans-serif" font-size="14.00" fill="#000000"> &#160;Bootstrap</text>
<polygon fill="#fdb462" stroke="transparent" points="473.5,-10 473.5,-30 493.5,-30 493.5,-10 473.5,-10"/>
<text text-anchor="start" x="497.1732" y="-15.4" font-family="sans-serif" font-size="14.00" fill="#000000"> &#160;Providers</text>
<polygon fill="#fb8072" stroke="transparent" points="569.5,-10 569.5,-30 589.5,-30 589.5,-10 569.5,-10"/>
<text text-anchor="start" x="593.2258" y="-15.4" font-family="sans-serif" font-size="14.00" fill="#000000"> &#160;Exports</text>
<g id="clust1" class="cluster">
<title>cluster_FormlyModule</title>
<polygon fill="none" stroke="#000000" stroke-dasharray="1,5" points="8,-70 8,-268 815,-268 815,-70 8,-70"/>
</g>
<g id="clust2" class="cluster">
<title>cluster_FormlyModule_declarations</title>
<polygon fill="none" stroke="#000000" points="16,-78 16,-130 807,-130 807,-78 16,-78"/>
</g>
<g id="clust10" class="cluster">
<title>cluster_FormlyModule_exports</title>
<polygon fill="none" stroke="#000000" points="106,-208 106,-260 756,-260 756,-208 106,-208"/>
</g>
<!-- FormlyAttributes -->
<g id="node1" class="node">
<title>FormlyAttributes</title>
<polygon fill="#ffffb3" stroke="#000000" points="798.7134,-122 685.2866,-122 685.2866,-86 798.7134,-86 798.7134,-122"/>
<text text-anchor="middle" x="742" y="-99.8" font-family="Times,serif" font-size="14.00" fill="#000000">FormlyAttributes</text>
</g>
<!-- FormlyModule -->
<g id="node7" class="node">
<title>FormlyModule</title>
<polygon fill="#8dd3c7" stroke="#000000" points="511.2745,-187 508.2745,-191 487.2745,-191 484.2745,-187 410.7255,-187 410.7255,-151 511.2745,-151 511.2745,-187"/>
<text text-anchor="middle" x="461" y="-164.8" font-family="Times,serif" font-size="14.00" fill="#000000">FormlyModule</text>
</g>
<!-- FormlyAttributes&#45;&gt;FormlyModule -->
<g id="edge1" class="edge">
<title>FormlyAttributes&#45;&gt;FormlyModule</title>
<path fill="none" stroke="#000000" d="M716.875,-122.2667C716.875,-140.5552 716.875,-166 716.875,-166 716.875,-166 521.5527,-166 521.5527,-166"/>
<polygon fill="#000000" stroke="#000000" points="521.5527,-162.5001 511.5527,-166 521.5526,-169.5001 521.5527,-162.5001"/>
</g>
<!-- FormlyField -->
<g id="node2" class="node">
<title>FormlyField</title>
<polygon fill="#ffffb3" stroke="#000000" points="667.0028,-122 580.9972,-122 580.9972,-86 667.0028,-86 667.0028,-122"/>
<text text-anchor="middle" x="624" y="-99.8" font-family="Times,serif" font-size="14.00" fill="#000000">FormlyField</text>
</g>
<!-- FormlyField&#45;&gt;FormlyModule -->
<g id="edge2" class="edge">
<title>FormlyField&#45;&gt;FormlyModule</title>
<path fill="none" stroke="#000000" d="M597.375,-122.0091C597.375,-138.0494 597.375,-159 597.375,-159 597.375,-159 521.3936,-159 521.3936,-159"/>
<polygon fill="#000000" stroke="#000000" points="521.3936,-155.5001 511.3936,-159 521.3935,-162.5001 521.3936,-155.5001"/>
</g>
<!-- FormlyForm -->
<g id="node3" class="node">
<title>FormlyForm</title>
<polygon fill="#ffffb3" stroke="#000000" points="562.5593,-122 475.4407,-122 475.4407,-86 562.5593,-86 562.5593,-122"/>
<text text-anchor="middle" x="519" y="-99.8" font-family="Times,serif" font-size="14.00" fill="#000000">FormlyForm</text>
</g>
<!-- FormlyForm&#45;&gt;FormlyModule -->
<g id="edge3" class="edge">
<title>FormlyForm&#45;&gt;FormlyModule</title>
<path fill="none" stroke="#000000" d="M493.304,-122.1061C493.304,-122.1061 493.304,-140.991 493.304,-140.991"/>
<polygon fill="#000000" stroke="#000000" points="489.8041,-140.9909 493.304,-150.991 496.8041,-140.991 489.8041,-140.9909"/>
</g>
<!-- FormlyGroup -->
<g id="node4" class="node">
<title>FormlyGroup</title>
<polygon fill="#ffffb3" stroke="#000000" points="457.4916,-122 364.5084,-122 364.5084,-86 457.4916,-86 457.4916,-122"/>
<text text-anchor="middle" x="411" y="-99.8" font-family="Times,serif" font-size="14.00" fill="#000000">FormlyGroup</text>
</g>
<!-- FormlyGroup&#45;&gt;FormlyModule -->
<g id="edge4" class="edge">
<title>FormlyGroup&#45;&gt;FormlyModule</title>
<path fill="none" stroke="#000000" d="M434.0544,-122.1061C434.0544,-122.1061 434.0544,-140.991 434.0544,-140.991"/>
<polygon fill="#000000" stroke="#000000" points="430.5544,-140.9909 434.0544,-150.991 437.5544,-140.991 430.5544,-140.9909"/>
</g>
<!-- FormlyTemplateType -->
<g id="node5" class="node">
<title>FormlyTemplateType</title>
<polygon fill="#ffffb3" stroke="#000000" points="346.3599,-122 207.6401,-122 207.6401,-86 346.3599,-86 346.3599,-122"/>
<text text-anchor="middle" x="277" y="-99.8" font-family="Times,serif" font-size="14.00" fill="#000000">FormlyTemplateType</text>
</g>
<!-- FormlyTemplateType&#45;&gt;FormlyModule -->
<g id="edge5" class="edge">
<title>FormlyTemplateType&#45;&gt;FormlyModule</title>
<path fill="none" stroke="#000000" d="M323.592,-122.0091C323.592,-138.0494 323.592,-159 323.592,-159 323.592,-159 400.6146,-159 400.6146,-159"/>
<polygon fill="#000000" stroke="#000000" points="400.6146,-162.5001 410.6146,-159 400.6146,-155.5001 400.6146,-162.5001"/>
</g>
<!-- FormlyValidationMessage -->
<g id="node6" class="node">
<title>FormlyValidationMessage</title>
<polygon fill="#ffffb3" stroke="#000000" points="189.8005,-122 24.1995,-122 24.1995,-86 189.8005,-86 189.8005,-122"/>
<text text-anchor="middle" x="107" y="-99.8" font-family="Times,serif" font-size="14.00" fill="#000000">FormlyValidationMessage</text>
</g>
<!-- FormlyValidationMessage&#45;&gt;FormlyModule -->
<g id="edge6" class="edge">
<title>FormlyValidationMessage&#45;&gt;FormlyModule</title>
<path fill="none" stroke="#000000" d="M151.625,-122.2667C151.625,-140.5552 151.625,-166 151.625,-166 151.625,-166 400.605,-166 400.605,-166"/>
<polygon fill="#000000" stroke="#000000" points="400.605,-169.5001 410.605,-166 400.605,-162.5001 400.605,-169.5001"/>
</g>
<!-- FormlyAttributes  -->
<g id="node8" class="node">
<title>FormlyAttributes </title>
<polygon fill="#fb8072" stroke="#000000" points="748.2136,-252 631.7864,-252 631.7864,-216 748.2136,-216 748.2136,-252"/>
<text text-anchor="middle" x="690" y="-229.8" font-family="Times,serif" font-size="14.00" fill="#000000">FormlyAttributes </text>
</g>
<!-- FormlyModule&#45;&gt;FormlyAttributes  -->
<g id="edge7" class="edge">
<title>FormlyModule&#45;&gt;FormlyAttributes </title>
<path fill="none" stroke="#000000" stroke-dasharray="5,2" d="M511.4669,-173C567.2503,-173 649.3224,-173 649.3224,-173 649.3224,-173 649.3224,-205.698 649.3224,-205.698"/>
<polygon fill="#000000" stroke="#000000" points="645.8225,-205.698 649.3224,-215.698 652.8225,-205.698 645.8225,-205.698"/>
</g>
<!-- FormlyField  -->
<g id="node9" class="node">
<title>FormlyField </title>
<polygon fill="#fb8072" stroke="#000000" points="613.5042,-252 524.4958,-252 524.4958,-216 613.5042,-216 613.5042,-252"/>
<text text-anchor="middle" x="569" y="-229.8" font-family="Times,serif" font-size="14.00" fill="#000000">FormlyField </text>
</g>
<!-- FormlyModule&#45;&gt;FormlyField  -->
<g id="edge8" class="edge">
<title>FormlyModule&#45;&gt;FormlyField </title>
<path fill="none" stroke="#000000" stroke-dasharray="5,2" d="M511.3756,-180C528.5549,-180 543.5139,-180 543.5139,-180 543.5139,-180 543.5139,-205.7181 543.5139,-205.7181"/>
<polygon fill="#000000" stroke="#000000" points="540.0139,-205.718 543.5139,-215.7181 547.0139,-205.7181 540.0139,-205.718"/>
</g>
<!-- FormlyForm  -->
<g id="node10" class="node">
<title>FormlyForm </title>
<polygon fill="#fb8072" stroke="#000000" points="506.5582,-252 415.4418,-252 415.4418,-216 506.5582,-216 506.5582,-252"/>
<text text-anchor="middle" x="461" y="-229.8" font-family="Times,serif" font-size="14.00" fill="#000000">FormlyForm </text>
</g>
<!-- FormlyModule&#45;&gt;FormlyForm  -->
<g id="edge9" class="edge">
<title>FormlyModule&#45;&gt;FormlyForm </title>
<path fill="none" stroke="#000000" stroke-dasharray="5,2" d="M461,-187.1061C461,-187.1061 461,-205.991 461,-205.991"/>
<polygon fill="#000000" stroke="#000000" points="457.5001,-205.9909 461,-215.991 464.5001,-205.991 457.5001,-205.9909"/>
</g>
<!-- FormlyGroup  -->
<g id="node11" class="node">
<title>FormlyGroup </title>
<polygon fill="#fb8072" stroke="#000000" points="397.4929,-252 300.5071,-252 300.5071,-216 397.4929,-216 397.4929,-252"/>
<text text-anchor="middle" x="349" y="-229.8" font-family="Times,serif" font-size="14.00" fill="#000000">FormlyGroup </text>
</g>
<!-- FormlyModule&#45;&gt;FormlyGroup  -->
<g id="edge10" class="edge">
<title>FormlyModule&#45;&gt;FormlyGroup </title>
<path fill="none" stroke="#000000" stroke-dasharray="5,2" d="M410.7106,-180C394.6123,-180 380.875,-180 380.875,-180 380.875,-180 380.875,-205.7181 380.875,-205.7181"/>
<polygon fill="#000000" stroke="#000000" points="377.3751,-205.718 380.875,-215.7181 384.3751,-205.7181 377.3751,-205.718"/>
</g>
<!-- FormlyValidationMessage  -->
<g id="node12" class="node">
<title>FormlyValidationMessage </title>
<polygon fill="#fb8072" stroke="#000000" points="282.3003,-252 113.6997,-252 113.6997,-216 282.3003,-216 282.3003,-252"/>
<text text-anchor="middle" x="198" y="-229.8" font-family="Times,serif" font-size="14.00" fill="#000000">FormlyValidationMessage </text>
</g>
<!-- FormlyModule&#45;&gt;FormlyValidationMessage  -->
<g id="edge11" class="edge">
<title>FormlyModule&#45;&gt;FormlyValidationMessage </title>
<path fill="none" stroke="#000000" stroke-dasharray="5,2" d="M410.6267,-173C346.796,-173 244.9851,-173 244.9851,-173 244.9851,-173 244.9851,-205.698 244.9851,-205.698"/>
<polygon fill="#000000" stroke="#000000" points="241.4852,-205.698 244.9851,-215.698 248.4852,-205.698 241.4852,-205.698"/>
</g>
</g>
</svg>
